<svg width="1600" height="700" viewBox="0 0 1600 700" fill="none" xmlns="http://www.w3.org/2000/svg">
  <rect width="1600" height="700" rx="48" fill="url(#g)"/>
  <circle cx="1185" cy="330" r="170" stroke="#22D3EE" stroke-width="20" opacity="0.5"/>
  <circle cx="1130" cy="330" r="120" stroke="#38BDF8" stroke-width="8" opacity="0.35"/>
  <g filter="url(#shadow)">
    <rect x="875" y="150" width="160" height="410" rx="42" fill="#0F172A"/>
    <rect x="1040" y="130" width="160" height="430" rx="42" fill="#E2E8F0"/>
    <circle cx="940" cy="220" r="24" fill="#111827"/>
    <circle cx="940" cy="290" r="24" fill="#111827"/>
    <circle cx="1105" cy="210" r="24" fill="#CBD5E1"/>
    <circle cx="1105" cy="280" r="24" fill="#CBD5E1"/>
    <circle cx="940" cy="220" r="12" fill="#FACC15"/>
    <circle cx="940" cy="290" r="12" fill="#38BDF8"/>
    <circle cx="1105" cy="210" r="12" fill="#22C55E"/>
    <circle cx="1105" cy="280" r="12" fill="#F59E0B"/>
  </g>
  <text x="90" y="145" font-size="34" font-weight="800" fill="#67E8F9" font-family="Arial, Helvetica, sans-serif">MOBILE DEALS</text>
  <text x="90" y="305" font-size="76" font-weight="900" fill="#FFFFFF" font-family="Arial, Helvetica, sans-serif">Big Savings</text>
  <text x="90" y="388" font-size="56" font-weight="700" fill="#FFFFFF" font-family="Arial, Helvetica, sans-serif">on phones & accessories</text>
  <text x="90" y="456" font-size="31" font-weight="500" fill="#D1D5DB" font-family="Arial, Helvetica, sans-serif">Upgrade your device with limited-time offers.</text>
  <rect x="90" y="515" width="250" height="74" rx="37" fill="#FFFFFF"/>
  <text x="142" y="562" font-size="28" font-weight="700" fill="#0F172A" font-family="Arial, Helvetica, sans-serif">View Offers</text>
  <defs>
    <filter id="shadow" x="820" y="90" width="340" height="520" filterUnits="userSpaceOnUse">
      <feDropShadow dx="0" dy="18" stdDeviation="18" flood-opacity="0.26"/>
    </filter>
    <linearGradient id="g" x1="0" y1="0" x2="1600" y2="700" gradientUnits="userSpaceOnUse">
      <stop stop-color="#04111B"/>
      <stop offset="0.55" stop-color="#12304A"/>
      <stop offset="1" stop-color="#0F766E"/>
    </linearGradient>
  </defs>
</svg>
