<svg width="1600" height="700" viewBox="0 0 1600 700" fill="none" xmlns="http://www.w3.org/2000/svg">
  <rect width="1600" height="700" rx="48" fill="#05070D"/>
  <circle cx="1230" cy="355" r="165" stroke="#F59E0B" stroke-width="24" opacity="0.9"/>
  <circle cx="1180" cy="355" r="120" stroke="#F97316" stroke-width="10" opacity="0.5"/>
  <g filter="url(#shadow)">
    <rect x="875" y="170" width="165" height="390" rx="42" fill="#22252D"/>
    <rect x="1040" y="160" width="165" height="400" rx="42" fill="#F4F4F5"/>
    <circle cx="945" cy="240" r="26" fill="#111827"/>
    <circle cx="945" cy="240" r="14" fill="#FACC15"/>
    <circle cx="945" cy="310" r="26" fill="#111827"/>
    <circle cx="945" cy="310" r="14" fill="#A3A3A3"/>
    <circle cx="1110" cy="230" r="26" fill="#E5E7EB"/>
    <circle cx="1110" cy="230" r="14" fill="#22C55E"/>
    <circle cx="1110" cy="300" r="26" fill="#E5E7EB"/>
    <circle cx="1110" cy="300" r="14" fill="#A3A3A3"/>
  </g>
  <rect x="88" y="86" width="128" height="62" rx="10" fill="#FFD400"/>
  <text x="126" y="129" font-size="34" font-weight="800" fill="#111827" font-family="Arial, Helvetica, sans-serif">POCO</text>
  <text x="265" y="127" font-size="32" font-weight="700" fill="#F5F5F5" font-family="Arial, Helvetica, sans-serif">| Flipkart</text>
  <text x="92" y="326" font-size="68" font-weight="800" fill="#FFFFFF" font-family="Arial, Helvetica, sans-serif">POCO X8 Pro Max 5G</text>
  <text x="92" y="414" font-size="54" font-weight="700" fill="#FFFFFF" font-family="Arial, Helvetica, sans-serif">From ₹4,445/M*</text>
  <text x="92" y="482" font-size="32" font-weight="500" fill="#E5E7EB" font-family="Arial, Helvetica, sans-serif">Flagship dimensity 9500s processor</text>
  <rect x="92" y="526" width="470" height="86" rx="18" fill="#FFFFFF"/>
  <text x="126" y="579" font-size="34" font-weight="700" fill="#0284C7" font-family="Arial, Helvetica, sans-serif">SBI card</text>
  <text x="255" y="579" font-size="22" font-weight="700" fill="#111827" font-family="Arial, Helvetica, sans-serif">10% Instant Discount*</text>
  <text x="1290" y="125" font-size="52" font-weight="900" fill="#FDE047" font-family="Arial, Helvetica, sans-serif">SASA</text>
  <text x="1290" y="175" font-size="52" font-weight="900" fill="#FDE047" font-family="Arial, Helvetica, sans-serif">SALE</text>
  <rect x="1260" y="526" width="220" height="88" rx="18" fill="#111827" opacity="0.9"/>
  <text x="1290" y="576" font-size="54" font-weight="800" fill="#FFFFFF" font-family="Arial, Helvetica, sans-serif">9000</text>
  <defs>
    <filter id="shadow" x="820" y="120" width="410" height="510" filterUnits="userSpaceOnUse">
      <feDropShadow dx="0" dy="18" stdDeviation="18" flood-opacity="0.28"/>
    </filter>
  </defs>
</svg>
